<svg width="256" height="256" viewBox="0 0 256 256" fill="none" xmlns="http://www.w3.org/2000/svg">
<g clip-path="url(#clip0_1_2)">
<path d="M81.4316 194.834L30.5528 227.098L32.3342 243.971H35.6848C43.237 243.971 49.9411 248.804 52.3298 255.969H20.3377L14.5293 220.42C14.0154 217.276 15.4159 214.128 18.0931 212.405L55.7728 188.149C57.0484 187.33 57.8833 185.976 58.0448 184.469L59.0868 174.772C65.4436 181.967 73.0618 188.819 81.4316 194.834ZM194.295 198.983L214.291 243.972L224.287 255.969H244.283C241.74 250.809 237.222 246.892 231.754 245.106L228.287 243.972L215.29 198.983L212.469 179.37C206.307 183.66 199.584 187.19 192.425 189.809L194.295 198.983ZM250.729 127.225L244.283 124V118.002L248.282 112.004L219.096 99.0323C215.058 97.2377 210.32 98.3062 207.445 101.662L188.297 124.001C188.297 124.001 111.628 108.88 99.3604 106.097C73.7077 100.277 53.0977 93.6912 38.8484 82.8118C23.9888 71.4642 16.4163 57.0058 16.3391 39.8377C16.4387 24.4865 28.9573 12.0278 44.3318 12.0278C59.7673 12.0278 72.3245 24.585 72.3245 40.0215C72.3245 43.3345 75.0098 46.0198 78.3227 46.0198C81.6357 46.0198 84.321 43.3345 84.321 40.0215C84.322 17.9702 66.383 0.03125 44.3318 0.03125C25.1192 0.03125 8.41219 14.3739 4.91031 33.2757C1.17586 53.4359 11.1727 81.7616 41.6577 99.0618C50.002 103.798 64.8017 109.839 68.3178 111.15C58.6765 117.64 52.3288 128.647 52.3288 141.143C52.3288 148.044 54.1834 154.541 57.6324 159.967C68.5748 177.176 91.2821 191.96 91.2821 191.96C91.2943 191.968 91.3065 191.977 91.3187 191.985L72.3234 243.973L84.322 255.969H112.316C109.927 248.805 103.223 243.971 95.6706 243.971H90.3203L118.112 195.799C119.483 193.424 119.541 190.513 118.265 188.084L105.539 163.849C105.539 163.849 122.904 183.346 153.369 186.611L140.308 243.972L148.306 255.969H168.302C165.716 250.798 161.415 246.687 156.132 244.339L155.305 243.972L173.301 198.983L188.255 182.794C207.053 176.291 222.669 162.978 232.104 146.469L244.839 141.375C247.023 140.501 248.711 138.71 249.456 136.478L251.733 129.646C252.047 128.702 251.619 127.67 250.729 127.225Z" fill="black"/>
<path d="M78.5 40V91.6667" stroke="black" stroke-width="12" stroke-linecap="round" stroke-linejoin="round"/>
<path d="M93.0833 40H71.2083C68.5009 40 65.9044 41.0799 63.99 43.0022C62.0755 44.9244 61 47.5315 61 50.25C61 52.9685 62.0755 55.5756 63.99 57.4978C65.9044 59.4201 68.5009 60.5 71.2083 60.5H85.7917C88.4991 60.5 91.0956 61.5799 93.0101 63.5022C94.9245 65.4244 96 68.0315 96 70.75C96 73.4685 94.9245 76.0756 93.0101 77.9978C91.0956 79.9201 88.4991 81 85.7917 81H61" stroke="black" stroke-width="12" stroke-linecap="round" stroke-linejoin="round"/>
</g>
<defs>
<clipPath id="clip0_1_2">
<rect width="256" height="256" fill="white"/>
</clipPath>
</defs>
</svg>
