<svg width="256" height="256" viewBox="0 0 256 256" fill="none" xmlns="http://www.w3.org/2000/svg">
<g clip-path="url(#clip0_2_2)">
<circle cx="128" cy="128" r="128" fill="white"/>
<path d="M94.2466 68.0167V102.941" stroke="black" stroke-width="12" stroke-linecap="round" stroke-linejoin="round"/>
<path d="M104.104 68.0167H89.3179C87.4878 68.0167 85.7327 68.7467 84.4386 70.046C83.1446 71.3454 82.4176 73.1076 82.4176 74.9452C82.4176 76.7827 83.1446 78.545 84.4386 79.8443C85.7327 81.1437 87.4878 81.8736 89.3179 81.8736H99.1754C101.005 81.8736 102.761 82.6036 104.055 83.9029C105.349 85.2023 106.076 86.9645 106.076 88.8021C106.076 90.6396 105.349 92.4019 104.055 93.7012C102.761 95.0006 101.005 95.7305 99.1754 95.7305H82.4176" stroke="black" stroke-width="12" stroke-linecap="round" stroke-linejoin="round"/>
<path d="M96.2282 172.676L61.8369 194.485L63.041 205.89H65.3058C70.4107 205.89 74.9423 209.157 76.557 214H54.932L51.0059 189.971C50.6585 187.846 51.6052 185.718 53.4148 184.553L78.8843 168.158C79.7465 167.604 80.3108 166.689 80.42 165.67L81.1243 159.115C85.4212 163.979 90.5707 168.61 96.2282 172.676ZM172.518 175.481L186.034 205.891L192.791 214H206.307C204.588 210.513 201.534 207.865 197.838 206.657L195.495 205.891L186.709 175.481L184.802 162.224C180.637 165.123 176.093 167.509 171.254 169.28L172.518 175.481ZM210.664 126.976L206.307 124.797V120.742L209.01 116.688L189.282 107.919C186.553 106.706 183.35 107.429 181.407 109.697L168.463 124.797C168.463 124.797 116.639 114.576 108.347 112.695C91.0073 108.761 77.076 104.309 67.4443 96.9552C57.4 89.2849 52.2814 79.5117 52.2292 67.907C52.2965 57.5304 60.7584 49.109 71.1508 49.109C81.5843 49.109 90.0723 57.597 90.0723 68.0313C90.0723 70.2706 91.8874 72.0858 94.1268 72.0858C96.3662 72.0858 98.1813 70.2706 98.1813 68.0313C98.182 53.1258 86.0562 41 71.1508 41C58.1641 41 46.871 50.6949 44.5039 63.4715C41.9797 77.0986 48.737 96.2454 69.3432 107.939C74.9835 111.141 84.9873 115.224 87.364 116.11C80.847 120.497 76.5563 127.937 76.5563 136.384C76.5563 141.049 77.8099 145.441 80.1413 149.108C87.5377 160.74 102.887 170.734 102.887 170.734C102.895 170.739 102.903 170.745 102.911 170.751L90.0716 205.892L98.182 214H117.104C115.49 209.157 110.958 205.89 105.853 205.89H102.237L121.022 173.329C121.949 171.723 121.988 169.755 121.126 168.114L112.524 151.732C112.524 151.732 124.261 164.911 144.854 167.118L136.026 205.891L141.432 214H154.948C153.2 210.505 150.293 207.726 146.722 206.139L146.163 205.891L158.327 175.481L168.435 164.538C181.142 160.142 191.697 151.143 198.074 139.984L206.683 136.541C208.159 135.95 209.3 134.739 209.803 133.231L211.343 128.613C211.555 127.974 211.266 127.277 210.664 126.976Z" fill="black"/>
</g>
<defs>
<clipPath id="clip0_2_2">
<rect width="256" height="256" fill="white"/>
</clipPath>
</defs>
</svg>
